<svg width="60" height="60" viewBox="0 0 60 60" fill="none" xmlns="http://www.w3.org/2000/svg">
<path fill-rule="evenodd" clip-rule="evenodd" d="M38.5335 15.9022C38.3779 15.6943 38.1757 15.5257 37.9433 15.4099C37.7108 15.2941 37.4545 15.2343 37.1948 15.2353H22.9069L22.8772 15.1163C22.7267 14.5115 22.378 13.9744 21.8867 13.5909C21.3954 13.2073 20.7898 12.9993 20.1665 13H18.5588C18.4106 13 18.2685 13.0589 18.1637 13.1637C18.0589 13.2685 18 13.4106 18 13.5588C18 13.707 18.0589 13.8492 18.1637 13.954C18.2685 14.0588 18.4106 14.1176 18.5588 14.1176H20.1665C20.5405 14.1172 20.9038 14.2419 21.1987 14.472C21.4935 14.702 21.7028 15.0242 21.7933 15.387L24.2993 25.4131C24.4498 26.0179 24.7985 26.555 25.2898 26.9386C25.7811 27.3221 26.3866 27.5301 27.0099 27.5294H35.3235C35.4717 27.5294 35.6139 27.4705 35.7187 27.3657C35.8235 27.2609 35.8824 27.1188 35.8824 26.9706C35.8824 26.8224 35.8235 26.6802 35.7187 26.5754C35.6139 26.4706 35.4717 26.4118 35.3235 26.4118H27.0099C26.636 26.4122 26.2726 26.2875 25.9778 26.0574C25.683 25.8274 25.4736 25.5053 25.3832 25.1424L25.1418 24.1765H34.7549C35.3616 24.1745 35.9513 23.9761 36.4357 23.6109C36.9201 23.2457 37.2732 22.7334 37.4421 22.1507L38.8069 17.3724C38.8792 17.123 38.8921 16.8601 38.8446 16.6048C38.7971 16.3496 38.6906 16.1089 38.5335 15.9022ZM35.323 32.0004C36.2488 32.0004 36.9994 31.2498 36.9994 30.3239C36.9994 29.398 36.2488 28.6475 35.323 28.6475C34.3971 28.6475 33.6465 29.398 33.6465 30.3239C33.6465 31.2498 34.3971 32.0004 35.323 32.0004ZM26.941 30.3237C26.941 31.2496 26.1904 32.0002 25.2645 32.0002C24.3386 32.0002 23.5881 31.2496 23.5881 30.3237C23.5881 29.3979 24.3386 28.6473 25.2645 28.6473C26.1904 28.6473 26.941 29.3979 26.941 30.3237Z" fill="#F72055"/>
<path d="M13.04 43.3135L16.4287 47H14.998L11.9609 43.6943H11.9219V47H10.8281V39.9541H11.9219V43.1084H11.9609L14.832 39.9541H16.1406L13.04 43.3135ZM19.002 47.0977C17.5322 47.0977 16.5654 46.0869 16.5654 44.4316C16.5654 42.7812 17.5371 41.7705 19.002 41.7705C20.4668 41.7705 21.4385 42.7812 21.4385 44.4316C21.4385 46.0869 20.4717 47.0977 19.002 47.0977ZM19.002 46.2285C19.832 46.2285 20.3643 45.5742 20.3643 44.4316C20.3643 43.2939 19.8271 42.6396 19.002 42.6396C18.1768 42.6396 17.6396 43.2939 17.6396 44.4316C17.6396 45.5742 18.1768 46.2285 19.002 46.2285ZM25.0273 41.7803C26.3311 41.7803 27.1904 42.8057 27.1904 44.4316C27.1904 46.0576 26.3359 47.0879 25.0469 47.0879C24.3096 47.0879 23.7236 46.7266 23.4307 46.1553H23.4062V48.6992H22.3516V41.8633H23.3721V42.7471H23.3916C23.6943 42.1562 24.2852 41.7803 25.0273 41.7803ZM24.749 46.1943C25.584 46.1943 26.1064 45.5107 26.1064 44.4316C26.1064 43.3574 25.584 42.6689 24.749 42.6689C23.9434 42.6689 23.4014 43.3721 23.4014 44.4316C23.4014 45.501 23.9385 46.1943 24.749 46.1943ZM29.9443 47.0977C28.7432 47.0977 27.9082 46.5068 27.8154 45.5596H28.8555C28.9629 46.0039 29.3535 46.248 29.9443 46.248C30.6182 46.248 30.9941 45.9355 30.9941 45.4814C30.9941 44.9688 30.6475 44.7344 29.9492 44.7344H29.1973V43.958H29.9346C30.5254 43.958 30.833 43.7334 30.833 43.2842C30.833 42.8887 30.5498 42.6104 29.9492 42.6104C29.3828 42.6104 29.002 42.8545 28.9336 43.2549H27.9229C28.0303 42.3418 28.7969 41.7705 29.9443 41.7705C31.1895 41.7705 31.8633 42.3271 31.8633 43.1816C31.8633 43.7041 31.541 44.1484 31.043 44.2754V44.3145C31.6973 44.4658 32.0439 44.8906 32.0439 45.4766C32.0439 46.4531 31.2188 47.0977 29.9443 47.0977ZM34.0117 47H32.9717V41.8633H34.0117V45.4619H34.0508L36.4238 41.8633H37.4639V47H36.4238V43.3916H36.3848L34.0117 47ZM41.9707 47V44.7637H39.6465V47H38.5967V41.8633H39.6465V43.9336H41.9707V41.8633H43.0205V47H41.9707ZM45.9648 46.2529C46.7021 46.2529 47.2783 45.7451 47.2783 45.0762V44.6709L46.0137 44.749C45.3838 44.793 45.0273 45.0713 45.0273 45.5107C45.0273 45.96 45.3984 46.2529 45.9648 46.2529ZM45.6719 47.0879C44.666 47.0879 43.9629 46.4629 43.9629 45.54C43.9629 44.6416 44.6514 44.0898 45.8721 44.0215L47.2783 43.9385V43.543C47.2783 42.9717 46.8926 42.6299 46.248 42.6299C45.6377 42.6299 45.2568 42.9229 45.1641 43.3818H44.168C44.2266 42.4541 45.0176 41.7705 46.2871 41.7705C47.5322 41.7705 48.3281 42.4297 48.3281 43.46V47H47.3174V46.1553H47.293C46.9951 46.7266 46.3457 47.0879 45.6719 47.0879Z" fill="#F72055"/>
</svg>
