<svg width="60" height="60" viewBox="0 0 60 60" fill="none" xmlns="http://www.w3.org/2000/svg">
<path d="M35.7276 16.35C36.5425 17.2127 37 18.3808 37 19.5984C37 20.8161 36.5425 21.9842 35.7276 22.8469L28.9979 30L22.2681 22.8469C21.6629 22.2044 21.2509 21.3879 21.0836 20.4996C20.9163 19.6113 21.0012 18.6908 21.3277 17.8531C21.6541 17.0155 22.2076 16.298 22.9189 15.7905C23.6301 15.283 24.4676 15.008 25.3263 15C26.4746 15.0073 27.5736 15.4925 28.3845 16.35C28.6209 16.5968 28.827 16.874 28.9979 17.175C29.1687 16.874 29.3748 16.5968 29.6113 16.35C30.0108 15.9226 30.4869 15.5831 31.0119 15.3514C31.5369 15.1198 32.1003 15.0004 32.6695 15.0004C33.2386 15.0004 33.802 15.1198 34.327 15.3514C34.852 15.5831 35.3281 15.9226 35.7276 16.35Z" fill="#AAAAAA" stroke="#AAAAAA" stroke-width="1.5" stroke-linecap="round" stroke-linejoin="round"/>
<path d="M9.51953 47V41.6973H9.44629L5.85742 47H4.79297V39.9541H5.87695V45.2715H5.9502L9.53906 39.9541H10.6035V47H9.51953ZM13.7139 47.0977C12.5127 47.0977 11.6777 46.5068 11.585 45.5596H12.625C12.7324 46.0039 13.123 46.248 13.7139 46.248C14.3877 46.248 14.7637 45.9355 14.7637 45.4814C14.7637 44.9688 14.417 44.7344 13.7188 44.7344H12.9668V43.958H13.7041C14.2949 43.958 14.6025 43.7334 14.6025 43.2842C14.6025 42.8887 14.3193 42.6104 13.7188 42.6104C13.1523 42.6104 12.7715 42.8545 12.7031 43.2549H11.6924C11.7998 42.3418 12.5664 41.7705 13.7139 41.7705C14.959 41.7705 15.6328 42.3271 15.6328 43.1816C15.6328 43.7041 15.3105 44.1484 14.8125 44.2754V44.3145C15.4668 44.4658 15.8135 44.8906 15.8135 45.4766C15.8135 46.4531 14.9883 47.0977 13.7139 47.0977ZM19.0312 47.0977C17.4248 47.0977 16.5557 46.0479 16.5557 44.0166C16.5557 41.165 17.3857 40.0078 19.3389 39.9395L19.7979 39.9248C20.3496 39.9004 20.9062 39.7979 21.1406 39.6709V40.5449C21.0088 40.667 20.4863 40.7939 19.8564 40.8184L19.4072 40.833C18.0352 40.8818 17.6006 41.4971 17.4102 42.9473H17.4492C17.7764 42.3418 18.3965 42.0098 19.2021 42.0098C20.5889 42.0098 21.4775 42.9766 21.4775 44.4902C21.4775 46.1064 20.5449 47.0977 19.0312 47.0977ZM19.0215 46.2139C19.8906 46.2139 20.3984 45.5986 20.3984 44.5049C20.3984 43.4648 19.8906 42.8691 19.0215 42.8691C18.1475 42.8691 17.6348 43.4648 17.6348 44.5049C17.6348 45.5986 18.1426 46.2139 19.0215 46.2139ZM25.0664 41.7803C26.3701 41.7803 27.2295 42.8057 27.2295 44.4316C27.2295 46.0576 26.375 47.0879 25.0859 47.0879C24.3486 47.0879 23.7627 46.7266 23.4697 46.1553H23.4453V48.6992H22.3906V41.8633H23.4111V42.7471H23.4307C23.7334 42.1562 24.3242 41.7803 25.0664 41.7803ZM24.7881 46.1943C25.623 46.1943 26.1455 45.5107 26.1455 44.4316C26.1455 43.3574 25.623 42.6689 24.7881 42.6689C23.9824 42.6689 23.4404 43.3721 23.4404 44.4316C23.4404 45.501 23.9775 46.1943 24.7881 46.1943ZM29.9395 46.2529C30.6768 46.2529 31.2529 45.7451 31.2529 45.0762V44.6709L29.9883 44.749C29.3584 44.793 29.002 45.0713 29.002 45.5107C29.002 45.96 29.373 46.2529 29.9395 46.2529ZM29.6465 47.0879C28.6406 47.0879 27.9375 46.4629 27.9375 45.54C27.9375 44.6416 28.626 44.0898 29.8467 44.0215L31.2529 43.9385V43.543C31.2529 42.9717 30.8672 42.6299 30.2227 42.6299C29.6123 42.6299 29.2314 42.9229 29.1387 43.3818H28.1426C28.2012 42.4541 28.9922 41.7705 30.2617 41.7705C31.5068 41.7705 32.3027 42.4297 32.3027 43.46V47H31.292V46.1553H31.2676C30.9697 46.7266 30.3203 47.0879 29.6465 47.0879ZM36.7852 47V44.7637H34.4609V47H33.4111V41.8633H34.4609V43.9336H36.7852V41.8633H37.835V47H36.7852ZM42.3516 47V44.7637H40.0273V47H38.9775V41.8633H40.0273V43.9336H42.3516V41.8633H43.4014V47H42.3516ZM46.7559 47.0977C45.2861 47.0977 44.3193 46.0869 44.3193 44.4316C44.3193 42.7812 45.291 41.7705 46.7559 41.7705C48.2207 41.7705 49.1924 42.7812 49.1924 44.4316C49.1924 46.0869 48.2256 47.0977 46.7559 47.0977ZM46.7559 46.2285C47.5859 46.2285 48.1182 45.5742 48.1182 44.4316C48.1182 43.2939 47.5811 42.6396 46.7559 42.6396C45.9307 42.6396 45.3936 43.2939 45.3936 44.4316C45.3936 45.5742 45.9307 46.2285 46.7559 46.2285ZM52.2539 42.6201C51.5166 42.6201 50.999 43.1816 50.9453 43.958H53.5137C53.4893 43.1719 52.9912 42.6201 52.2539 42.6201ZM53.5088 45.4912H54.5098C54.3633 46.4287 53.4746 47.0977 52.2979 47.0977C50.7891 47.0977 49.876 46.0771 49.876 44.4561C49.876 42.8447 50.8037 41.7705 52.2539 41.7705C53.6797 41.7705 54.5684 42.7764 54.5684 44.334V44.6953H50.9404V44.7588C50.9404 45.6523 51.4775 46.2432 52.3223 46.2432C52.9229 46.2432 53.3672 45.9404 53.5088 45.4912Z" fill="#8D8D8D"/>
</svg>
