<svg width="60" height="60" viewBox="0 0 60 60" fill="none" xmlns="http://www.w3.org/2000/svg">
<rect width="60" height="60" rx="30" fill="#F5F5F6"/>
<path d="M26.3359 43.209H22.8496V40.7871H26.1553V40.0059H22.8496V37.7451H26.3359V36.9541H21.9707V44H26.3359V43.209ZM30.8281 43.3018H28.3525V43.2627C28.5918 42.9404 28.7236 42.3887 28.7676 41.7588L28.9238 39.6201H30.8281V43.3018ZM27.7471 45.3428V44H31.6875V45.3428H32.4785V43.3018H31.6729V38.9219H28.1768L27.9814 41.7393C27.9326 42.4229 27.752 43.0576 27.3809 43.3018H26.9561V45.3428H27.7471ZM34.9199 43.3652C34.3096 43.3652 33.9043 43.0479 33.9043 42.5645C33.9043 42.0859 34.2949 41.7832 34.9785 41.7393L36.3359 41.6562V42.0713C36.3359 42.8037 35.7207 43.3652 34.9199 43.3652ZM34.7295 44.0879C35.4131 44.0879 36.0576 43.707 36.3604 43.126H36.3799V44H37.1855V40.4893C37.1855 39.4785 36.4336 38.834 35.2422 38.834C34.041 38.834 33.2891 39.5078 33.2305 40.3867H34.0508C34.1582 39.8887 34.5684 39.5811 35.2227 39.5811C35.9258 39.5811 36.3359 39.9521 36.3359 40.5723V40.9971L34.8809 41.0801C33.709 41.1484 33.04 41.6953 33.04 42.5645C33.04 43.4775 33.7188 44.0879 34.7295 44.0879Z" fill="#1D1D1D"/>
<path d="M30.1725 18.3322H20V17.1172H24.4753V14.4057L25.9323 13L26.8285 13.8658L25.7472 14.9137V17.1172H30.1742L30.1725 18.3322ZM27.6958 28.7306C26.1479 27.2249 25.2317 25.2201 25.1227 23.102V22.0234H29.193L29.5179 18.9591L20.7491 18.9589L21.9179 30H27.8641L27.8564 28.8483C27.8345 28.8269 27.7186 28.7519 27.6956 28.7306L27.6958 28.7306ZM33.3678 22.636H25.7579V23.0693C25.8763 25.2577 26.9152 27.3047 28.6345 28.7373H28.6028L28.6226 29.9996L38.1437 29.9994L38.1219 28.7383L38.1221 28.7385C39.8421 27.3062 40.8814 25.2585 41 23.0694V22.6361L33.3678 22.636ZM40.1458 19.2293C40.2925 19.0896 40.3728 18.8975 40.3677 18.6986C40.3626 18.4997 40.2727 18.3118 40.119 18.1793C39.9655 18.0465 39.7617 17.981 39.5564 17.9983C39.3509 18.0153 39.1621 18.1135 39.0343 18.2697L35.9224 22.0225H37.8037L40.1458 19.2293Z" fill="#1D1D1D"/>
</svg>
