<svg width="60" height="60" viewBox="0 0 60 60" fill="none" xmlns="http://www.w3.org/2000/svg">
<path d="M29.3753 21.75V31.3333H26.5087C23.4753 31.3333 21.667 29.525 21.667 26.4917V21.75H29.3753Z" fill="#AAAAAA"/>
<path d="M38.3333 21.75V26.4917C38.3333 29.525 36.525 31.3333 33.4917 31.3333H30.625V21.75H38.3333Z" fill="#AAAAAA"/>
<path d="M38.3337 19.5087V20.5003H21.667V19.5087C21.667 16.4753 23.4753 14.667 26.5087 14.667H33.492C36.5253 14.667 38.3337 16.4753 38.3337 19.5087Z" fill="#AAAAAA"/>
<path d="M22.4023 47H21.3086V40.8965H18.9258L18.7158 44.3096C18.6084 46.165 18.0518 47.0488 16.8164 47.0488C16.6504 47.0488 16.499 47.0244 16.4062 46.9951V46.0283C16.4648 46.043 16.5967 46.0625 16.6943 46.0625C17.3584 46.0625 17.627 45.5059 17.7002 44.2559L17.9346 39.9541H22.4023V47ZM25.8252 42.6201C25.0879 42.6201 24.5703 43.1816 24.5166 43.958H27.085C27.0605 43.1719 26.5625 42.6201 25.8252 42.6201ZM27.0801 45.4912H28.0811C27.9346 46.4287 27.0459 47.0977 25.8691 47.0977C24.3604 47.0977 23.4473 46.0771 23.4473 44.4561C23.4473 42.8447 24.375 41.7705 25.8252 41.7705C27.251 41.7705 28.1396 42.7764 28.1396 44.334V44.6953H24.5117V44.7588C24.5117 45.6523 25.0488 46.2432 25.8936 46.2432C26.4941 46.2432 26.9385 45.9404 27.0801 45.4912ZM32.417 47V44.7637H30.0928V47H29.043V41.8633H30.0928V43.9336H32.417V41.8633H33.4668V47H32.417ZM38.5156 41.8633V42.6982H36.9043V47H35.8545V42.6982H34.2432V41.8633H38.5156ZM40.9229 46.2529C41.6602 46.2529 42.2363 45.7451 42.2363 45.0762V44.6709L40.9717 44.749C40.3418 44.793 39.9854 45.0713 39.9854 45.5107C39.9854 45.96 40.3564 46.2529 40.9229 46.2529ZM40.6299 47.0879C39.624 47.0879 38.9209 46.4629 38.9209 45.54C38.9209 44.6416 39.6094 44.0898 40.8301 44.0215L42.2363 43.9385V43.543C42.2363 42.9717 41.8506 42.6299 41.2061 42.6299C40.5957 42.6299 40.2148 42.9229 40.1221 43.3818H39.126C39.1846 42.4541 39.9756 41.7705 41.2451 41.7705C42.4902 41.7705 43.2861 42.4297 43.2861 43.46V47H42.2754V46.1553H42.251C41.9531 46.7266 41.3037 47.0879 40.6299 47.0879Z" fill="#8D8D8D"/>
</svg>
