<svg width="34" height="34" viewBox="0 0 34 34" fill="none" xmlns="http://www.w3.org/2000/svg">
<rect width="34" height="34" rx="9.44444" fill="#F8F8F8"/>
<path fill-rule="evenodd" clip-rule="evenodd" d="M17.0002 10.3889C17.4533 10.3889 17.8206 10.7562 17.8206 11.2092V22.7908C17.8206 23.2438 17.4533 23.6111 17.0002 23.6111C16.5471 23.6111 16.1798 23.2438 16.1798 22.7908V11.2092C16.1798 10.7562 16.5471 10.3889 17.0002 10.3889Z" fill="#1D1D1D"/>
<path fill-rule="evenodd" clip-rule="evenodd" d="M10.3892 16.9999C10.3892 16.5469 10.7564 16.1796 11.2095 16.1796H22.791C23.2441 16.1796 23.6114 16.5469 23.6114 16.9999C23.6114 17.453 23.2441 17.8203 22.791 17.8203H11.2095C10.7564 17.8203 10.3892 17.453 10.3892 16.9999Z" fill="#1D1D1D"/>
</svg>
