<svg width="60" height="60" viewBox="0 0 60 60" fill="none" xmlns="http://www.w3.org/2000/svg">
<rect width="60" height="60" rx="30" fill="#F5F5F6"/>
<path d="M16.6631 44V37.7451H18.8848V36.9541H13.5625V37.7451H15.7842V44H16.6631ZM21.0527 44.0879C22.4541 44.0879 23.4014 43.0771 23.4014 41.4609C23.4014 39.8398 22.4541 38.834 21.0527 38.834C19.6465 38.834 18.6992 39.8398 18.6992 41.4609C18.6992 43.0771 19.6465 44.0879 21.0527 44.0879ZM21.0527 43.3408C20.1543 43.3408 19.5635 42.6572 19.5635 41.4609C19.5635 40.2646 20.1543 39.5811 21.0527 39.5811C21.9512 39.5811 22.5371 40.2646 22.5371 41.4609C22.5371 42.6572 21.9512 43.3408 21.0527 43.3408ZM26.3994 39.6104C26.9316 39.6104 27.2197 39.8594 27.2197 40.3086C27.2197 40.7969 26.9121 41.0312 26.2725 41.0312H25.1836V39.6104H26.3994ZM26.3408 41.7148C27.083 41.7148 27.4395 41.9785 27.4395 42.5205C27.4395 43.0332 27.1074 43.3115 26.4922 43.3115H25.1836V41.7148H26.3408ZM24.3438 44H26.5312C27.6104 44 28.2744 43.4385 28.2744 42.54C28.2744 41.9053 27.8545 41.4414 27.2148 41.3535V41.3145C27.6836 41.2168 28.0498 40.7383 28.0498 40.2207C28.0498 39.415 27.4688 38.9219 26.5166 38.9219H24.3438V44ZM30.9258 43.3652C30.3154 43.3652 29.9102 43.0479 29.9102 42.5645C29.9102 42.0859 30.3008 41.7832 30.9844 41.7393L32.3418 41.6562V42.0713C32.3418 42.8037 31.7266 43.3652 30.9258 43.3652ZM30.7354 44.0879C31.4189 44.0879 32.0635 43.707 32.3662 43.126H32.3857V44H33.1914V40.4893C33.1914 39.4785 32.4395 38.834 31.248 38.834C30.0469 38.834 29.2949 39.5078 29.2363 40.3867H30.0566C30.1641 39.8887 30.5742 39.5811 31.2285 39.5811C31.9316 39.5811 32.3418 39.9521 32.3418 40.5723V40.9971L30.8867 41.0801C29.7148 41.1484 29.0459 41.6953 29.0459 42.5645C29.0459 43.4775 29.7246 44.0879 30.7354 44.0879ZM36.834 38.834C36.0967 38.834 35.5059 39.21 35.1934 39.7812H35.1738V38.9219H34.3682V45.6943H35.2178V43.1748H35.2373C35.54 43.7314 36.126 44.0879 36.8535 44.0879C38.1328 44.0879 39.0068 43.0527 39.0068 41.4609C39.0068 39.8691 38.1279 38.834 36.834 38.834ZM36.668 43.3408C35.7988 43.3408 35.2129 42.5938 35.2129 41.4609C35.2129 40.333 35.7988 39.5811 36.668 39.5811C37.5713 39.5811 38.1377 40.3135 38.1377 41.4609C38.1377 42.6133 37.5713 43.3408 36.668 43.3408ZM44.2949 44H45.1348V38.9219H44.2949V44ZM41.7363 41.2412C42.3906 41.2412 42.8203 41.6465 42.8203 42.2715C42.8203 42.8916 42.3955 43.3018 41.7363 43.3018H40.7891V41.2412H41.7363ZM39.9492 44H41.751C42.9131 44 43.6602 43.3311 43.6602 42.2715C43.6602 41.2119 42.9131 40.543 41.751 40.543H40.7891V38.9219H39.9492V44Z" fill="#1D1D1D"/>
<path fill-rule="evenodd" clip-rule="evenodd" d="M25.0854 15.5513H29.1551C29.3941 15.5513 29.5881 15.364 29.5881 15.1331C29.5881 14.902 29.3941 14.7147 29.1551 14.7147L25.0854 14.7148C24.8464 14.7148 24.6524 14.9019 24.6524 15.1332C24.6526 15.364 24.8465 15.5513 25.0854 15.5513ZM26.2792 15.5518V16.9897H26.2293C25.7281 16.9897 25.3221 17.3992 25.3221 17.9041V19.0722C23.5464 19.191 22.1427 20.6731 22.1427 22.4841V30.7583C22.1427 31.5535 22.7855 32.1982 23.5784 32.1982H29.9926C30.7857 32.1982 31.4284 31.5535 31.4284 30.7583L31.4282 22.4841C31.4282 20.645 29.9809 19.1452 28.1663 19.0675V17.9041C28.1663 17.3992 27.76 16.9897 27.2591 16.9897H27.2092V15.5518H26.2792ZM29.7847 26.9962C29.9511 26.9962 30.086 26.8612 30.086 26.6943V22.7672C30.086 22.6002 29.9511 22.4649 29.7847 22.4649H23.7966C23.6301 22.4649 23.4955 22.6002 23.4955 22.7672V26.6943C23.4955 26.8612 23.6301 26.9962 23.7966 26.9962H29.7847Z" fill="#1D1D1D"/>
<path fill-rule="evenodd" clip-rule="evenodd" d="M37.9947 18.2853H31.8284C31.6209 18.2853 31.4431 18.4631 31.4431 18.6707V19.2784H38.3949V18.6707C38.3949 18.4631 38.217 18.2853 37.9947 18.2853ZM36.8535 30.252H32.97L31.4284 19.4611H38.3803L36.8535 30.252ZM33.4442 31.7847C33.1922 31.7847 32.9847 31.5772 32.9847 31.3252L32.9847 30.4358H36.8237V31.3252C36.8237 31.5772 36.6162 31.7847 36.3642 31.7847H33.4442Z" fill="#1D1D1D"/>
</svg>
