<svg width="42" height="39" viewBox="0 0 42 39" fill="none" xmlns="http://www.w3.org/2000/svg">
<path d="M21.3365 4C18.9785 4 17.0615 5.917 17.0615 8.275C17.0615 10.588 18.8705 12.46 21.2285 12.541C21.3005 12.532 21.3725 12.532 21.4265 12.541C21.4445 12.541 21.4535 12.541 21.4715 12.541C21.4805 12.541 21.4805 12.541 21.4895 12.541C23.7935 12.46 25.6025 10.588 25.6115 8.275C25.6115 5.917 23.6945 4 21.3365 4Z" fill="#AAAAAA"/>
<path d="M25.908 14.9342C23.397 13.2602 19.302 13.2602 16.773 14.9342C15.63 15.6992 15 16.7342 15 17.8412C15 18.9482 15.63 19.9742 16.764 20.7302C18.024 21.5762 19.68 21.9992 21.336 21.9992C22.992 21.9992 24.648 21.5762 25.908 20.7302C27.042 19.9652 27.672 18.9392 27.672 17.8232C27.663 16.7162 27.042 15.6902 25.908 14.9342Z" fill="#AAAAAA"/>
<path d="M6.67383 37H5.58496V30.9062H2.05957V37H0.960938V29.9541H6.67383V37ZM10.6191 31.7803C11.9229 31.7803 12.7822 32.8057 12.7822 34.4316C12.7822 36.0576 11.9277 37.0879 10.6387 37.0879C9.90137 37.0879 9.31543 36.7266 9.02246 36.1553H8.99805V38.6992H7.94336V31.8633H8.96387V32.7471H8.9834C9.28613 32.1562 9.87695 31.7803 10.6191 31.7803ZM10.3408 36.1943C11.1758 36.1943 11.6982 35.5107 11.6982 34.4316C11.6982 33.3574 11.1758 32.6689 10.3408 32.6689C9.53516 32.6689 8.99316 33.3721 8.99316 34.4316C8.99316 35.501 9.53027 36.1943 10.3408 36.1943ZM15.9023 37.0977C14.4326 37.0977 13.4658 36.0869 13.4658 34.4316C13.4658 32.7812 14.4375 31.7705 15.9023 31.7705C17.3672 31.7705 18.3389 32.7812 18.3389 34.4316C18.3389 36.0869 17.3721 37.0977 15.9023 37.0977ZM15.9023 36.2285C16.7324 36.2285 17.2646 35.5742 17.2646 34.4316C17.2646 33.2939 16.7275 32.6396 15.9023 32.6396C15.0771 32.6396 14.54 33.2939 14.54 34.4316C14.54 35.5742 15.0771 36.2285 15.9023 36.2285ZM21.7275 36.2188V32.6445C20.7266 32.6689 20.0869 33.3428 20.0869 34.4316C20.0869 35.5254 20.7217 36.1895 21.7275 36.2188ZM24.3838 34.4316C24.3838 33.3379 23.7441 32.6738 22.7432 32.6445V36.2188C23.7393 36.1943 24.3838 35.5254 24.3838 34.4316ZM21.7227 37.0684C20.0869 37.0342 19.0176 36.0332 19.0176 34.4316C19.0176 32.8398 20.0918 31.8242 21.7227 31.7998V30.1982H22.748V31.7998C24.374 31.8291 25.4482 32.835 25.4482 34.4316C25.4482 36.0234 24.3691 37.0391 22.748 37.0684V38.6992H21.7227V37.0684ZM27.3965 37H26.3564V31.8633H27.3965V35.4619H27.4355L29.8086 31.8633H30.8486V37H29.8086V33.3916H29.7695L27.3965 37ZM33.5342 34.6611C33.4365 36.1162 33.0703 37.0488 31.918 37.0488C31.7471 37.0488 31.625 37.0195 31.5615 36.9951V36.0674C31.6104 36.082 31.708 36.1064 31.8398 36.1064C32.3379 36.1064 32.5137 35.5107 32.5723 34.6172L32.748 31.8633H36.3076V37H35.2578V32.6982H33.6758L33.5342 34.6611ZM39.3789 34.2754H38.4902V36.1699H39.3789C39.9844 36.1699 40.375 35.7891 40.375 35.2227C40.375 34.6514 39.9795 34.2754 39.3789 34.2754ZM37.4404 37V31.8633H38.4902V33.4502H39.4717C40.6582 33.4502 41.4248 34.1387 41.4248 35.2227C41.4248 36.3115 40.6582 37 39.4717 37H37.4404Z" fill="#8D8D8D"/>
</svg>
